<mxfile host="Electron" agent="Mozilla/5.0 (Windows NT 10.0; Win64; x64) AppleWebKit/537.36 (KHTML, like Gecko) draw.io/28.0.6 Chrome/138.0.7204.100 Electron/37.2.3 Safari/537.36" version="28.0.6">
  <diagram name="Page-1" id="SL6R69AUOEgpG6hswTGL">
    <mxGraphModel dx="1489" dy="894" grid="1" gridSize="10" guides="1" tooltips="1" connect="1" arrows="1" fold="1" page="1" pageScale="1" pageWidth="827" pageHeight="1169" math="0" shadow="0">
      <root>
        <mxCell id="0" />
        <mxCell id="1" parent="0" />
        <mxCell id="2115HOQ8nHbyxsRojMSy-6" value="" style="rounded=0;whiteSpace=wrap;html=1;" parent="1" vertex="1">
          <mxGeometry x="600" y="490" width="200" height="50" as="geometry" />
        </mxCell>
        <mxCell id="X8W623icdsvTC2ZFrLDy-4" value="" style="rounded=0;whiteSpace=wrap;html=1;" parent="1" vertex="1">
          <mxGeometry x="40" y="30" width="160" height="50" as="geometry" />
        </mxCell>
        <mxCell id="X8W623icdsvTC2ZFrLDy-8" value="&lt;font style=&quot;font-size: 14px;&quot;&gt;&lt;b&gt;Branch&lt;/b&gt;&lt;/font&gt;" style="text;html=1;align=center;verticalAlign=middle;whiteSpace=wrap;rounded=0;" parent="1" vertex="1">
          <mxGeometry x="30" width="60" height="30" as="geometry" />
        </mxCell>
        <mxCell id="X8W623icdsvTC2ZFrLDy-10" value="&lt;font style=&quot;font-size: 14px;&quot;&gt;&lt;u&gt;Bran_ID&lt;/u&gt;&lt;/font&gt;" style="text;html=1;align=center;verticalAlign=middle;whiteSpace=wrap;rounded=0;" parent="1" vertex="1">
          <mxGeometry x="40" y="40" width="60" height="30" as="geometry" />
        </mxCell>
        <mxCell id="X8W623icdsvTC2ZFrLDy-11" value="&lt;font style=&quot;font-size: 14px;&quot;&gt;Bran_Name&lt;/font&gt;" style="text;html=1;align=center;verticalAlign=middle;whiteSpace=wrap;rounded=0;" parent="1" vertex="1">
          <mxGeometry x="110" y="40" width="60" height="30" as="geometry" />
        </mxCell>
        <mxCell id="X8W623icdsvTC2ZFrLDy-12" value="" style="endArrow=none;html=1;rounded=0;" parent="1" edge="1">
          <mxGeometry width="50" height="50" relative="1" as="geometry">
            <mxPoint x="100" y="80" as="sourcePoint" />
            <mxPoint x="100" y="30" as="targetPoint" />
          </mxGeometry>
        </mxCell>
        <mxCell id="X8W623icdsvTC2ZFrLDy-13" value="&lt;font style=&quot;font-size: 14px;&quot;&gt;&lt;b&gt;Department&lt;/b&gt;&lt;/font&gt;" style="text;html=1;align=center;verticalAlign=middle;whiteSpace=wrap;rounded=0;" parent="1" vertex="1">
          <mxGeometry x="40" y="90" width="60" height="30" as="geometry" />
        </mxCell>
        <mxCell id="X8W623icdsvTC2ZFrLDy-15" value="" style="rounded=0;whiteSpace=wrap;html=1;" parent="1" vertex="1">
          <mxGeometry x="40" y="130" width="160" height="50" as="geometry" />
        </mxCell>
        <mxCell id="X8W623icdsvTC2ZFrLDy-16" value="&lt;font style=&quot;font-size: 14px;&quot;&gt;Dep_Name&lt;/font&gt;" style="text;html=1;align=center;verticalAlign=middle;whiteSpace=wrap;rounded=0;" parent="1" vertex="1">
          <mxGeometry x="120" y="140" width="60" height="30" as="geometry" />
        </mxCell>
        <mxCell id="X8W623icdsvTC2ZFrLDy-17" value="&lt;font style=&quot;font-size: 14px;&quot;&gt;&lt;u&gt;Dep_Id&lt;/u&gt;&lt;/font&gt;" style="text;html=1;align=center;verticalAlign=middle;whiteSpace=wrap;rounded=0;" parent="1" vertex="1">
          <mxGeometry x="40" y="140" width="60" height="30" as="geometry" />
        </mxCell>
        <mxCell id="X8W623icdsvTC2ZFrLDy-18" value="" style="endArrow=none;html=1;rounded=0;" parent="1" edge="1">
          <mxGeometry width="50" height="50" relative="1" as="geometry">
            <mxPoint x="109" y="180" as="sourcePoint" />
            <mxPoint x="109" y="130" as="targetPoint" />
          </mxGeometry>
        </mxCell>
        <mxCell id="X8W623icdsvTC2ZFrLDy-19" value="" style="rounded=0;whiteSpace=wrap;html=1;" parent="1" vertex="1">
          <mxGeometry x="40" y="220" width="240" height="50" as="geometry" />
        </mxCell>
        <mxCell id="X8W623icdsvTC2ZFrLDy-20" value="&lt;span style=&quot;font-size: 14px;&quot;&gt;&lt;b&gt;Track&lt;/b&gt;&lt;/span&gt;" style="text;html=1;align=center;verticalAlign=middle;whiteSpace=wrap;rounded=0;" parent="1" vertex="1">
          <mxGeometry x="20" y="190" width="60" height="30" as="geometry" />
        </mxCell>
        <mxCell id="X8W623icdsvTC2ZFrLDy-21" value="&lt;font style=&quot;font-size: 14px;&quot;&gt;&lt;u&gt;Track_id&lt;/u&gt;&lt;/font&gt;" style="text;html=1;align=center;verticalAlign=middle;whiteSpace=wrap;rounded=0;" parent="1" vertex="1">
          <mxGeometry x="40" y="230" width="60" height="30" as="geometry" />
        </mxCell>
        <mxCell id="X8W623icdsvTC2ZFrLDy-22" value="&lt;font style=&quot;font-size: 14px;&quot;&gt;Track_Name&lt;/font&gt;" style="text;html=1;align=center;verticalAlign=middle;whiteSpace=wrap;rounded=0;" parent="1" vertex="1">
          <mxGeometry x="120" y="230" width="60" height="30" as="geometry" />
        </mxCell>
        <mxCell id="X8W623icdsvTC2ZFrLDy-23" value="" style="endArrow=none;html=1;rounded=0;" parent="1" edge="1">
          <mxGeometry width="50" height="50" relative="1" as="geometry">
            <mxPoint x="109" y="270" as="sourcePoint" />
            <mxPoint x="109" y="220" as="targetPoint" />
          </mxGeometry>
        </mxCell>
        <mxCell id="X8W623icdsvTC2ZFrLDy-24" value="&lt;span style=&quot;font-size: 14px;&quot;&gt;&lt;b&gt;Student&lt;/b&gt;&lt;/span&gt;" style="text;html=1;align=center;verticalAlign=middle;whiteSpace=wrap;rounded=0;" parent="1" vertex="1">
          <mxGeometry x="30" y="280" width="60" height="30" as="geometry" />
        </mxCell>
        <mxCell id="X8W623icdsvTC2ZFrLDy-25" value="" style="rounded=0;whiteSpace=wrap;html=1;fontStyle=1" parent="1" vertex="1">
          <mxGeometry x="40" y="310" width="480" height="50" as="geometry" />
        </mxCell>
        <mxCell id="X8W623icdsvTC2ZFrLDy-26" value="&lt;font style=&quot;font-size: 14px;&quot;&gt;&lt;u&gt;ST_ID&lt;/u&gt;&lt;/font&gt;" style="text;html=1;align=center;verticalAlign=middle;whiteSpace=wrap;rounded=0;" parent="1" vertex="1">
          <mxGeometry x="40" y="320" width="60" height="30" as="geometry" />
        </mxCell>
        <mxCell id="X8W623icdsvTC2ZFrLDy-27" value="&lt;font style=&quot;font-size: 14px;&quot;&gt;ST_Name&lt;/font&gt;" style="text;html=1;align=center;verticalAlign=middle;whiteSpace=wrap;rounded=0;" parent="1" vertex="1">
          <mxGeometry x="110" y="320" width="60" height="30" as="geometry" />
        </mxCell>
        <mxCell id="X8W623icdsvTC2ZFrLDy-28" value="&lt;font style=&quot;font-size: 14px;&quot;&gt;Email&lt;/font&gt;" style="text;html=1;align=center;verticalAlign=middle;whiteSpace=wrap;rounded=0;" parent="1" vertex="1">
          <mxGeometry x="170" y="320" width="60" height="30" as="geometry" />
        </mxCell>
        <mxCell id="X8W623icdsvTC2ZFrLDy-30" value="" style="endArrow=none;html=1;rounded=0;" parent="1" edge="1">
          <mxGeometry width="50" height="50" relative="1" as="geometry">
            <mxPoint x="99" y="360" as="sourcePoint" />
            <mxPoint x="99" y="310" as="targetPoint" />
          </mxGeometry>
        </mxCell>
        <mxCell id="X8W623icdsvTC2ZFrLDy-31" value="" style="endArrow=none;html=1;rounded=0;" parent="1" edge="1">
          <mxGeometry width="50" height="50" relative="1" as="geometry">
            <mxPoint x="179" y="360" as="sourcePoint" />
            <mxPoint x="179" y="310" as="targetPoint" />
          </mxGeometry>
        </mxCell>
        <mxCell id="X8W623icdsvTC2ZFrLDy-32" value="" style="endArrow=none;html=1;rounded=0;" parent="1" edge="1">
          <mxGeometry width="50" height="50" relative="1" as="geometry">
            <mxPoint x="230" y="360" as="sourcePoint" />
            <mxPoint x="230" y="310" as="targetPoint" />
          </mxGeometry>
        </mxCell>
        <mxCell id="X8W623icdsvTC2ZFrLDy-33" value="&lt;span style=&quot;font-size: 14px;&quot;&gt;&lt;b&gt;Course&lt;/b&gt;&lt;/span&gt;" style="text;html=1;align=center;verticalAlign=middle;whiteSpace=wrap;rounded=0;" parent="1" vertex="1">
          <mxGeometry x="30" y="370" width="60" height="30" as="geometry" />
        </mxCell>
        <mxCell id="X8W623icdsvTC2ZFrLDy-34" value="" style="rounded=0;whiteSpace=wrap;html=1;" parent="1" vertex="1">
          <mxGeometry x="40" y="400" width="380" height="50" as="geometry" />
        </mxCell>
        <mxCell id="X8W623icdsvTC2ZFrLDy-35" value="&lt;span style=&quot;font-size: 14px;&quot;&gt;&lt;u&gt;Crs_Id&lt;/u&gt;&lt;/span&gt;" style="text;html=1;align=center;verticalAlign=middle;whiteSpace=wrap;rounded=0;" parent="1" vertex="1">
          <mxGeometry x="40" y="410" width="60" height="30" as="geometry" />
        </mxCell>
        <mxCell id="X8W623icdsvTC2ZFrLDy-36" value="&lt;font style=&quot;font-size: 14px;&quot;&gt;Min_Deg&lt;/font&gt;" style="text;html=1;align=center;verticalAlign=middle;whiteSpace=wrap;rounded=0;" parent="1" vertex="1">
          <mxGeometry x="270" y="410" width="60" height="30" as="geometry" />
        </mxCell>
        <mxCell id="X8W623icdsvTC2ZFrLDy-37" value="&lt;font style=&quot;font-size: 14px;&quot;&gt;Max_Deg&lt;/font&gt;" style="text;html=1;align=center;verticalAlign=middle;whiteSpace=wrap;rounded=0;" parent="1" vertex="1">
          <mxGeometry x="350" y="410" width="60" height="30" as="geometry" />
        </mxCell>
        <mxCell id="X8W623icdsvTC2ZFrLDy-38" value="&lt;font style=&quot;font-size: 14px;&quot;&gt;Description&lt;/font&gt;&lt;span style=&quot;color: rgba(0, 0, 0, 0); font-family: monospace; font-size: 0px; text-align: start; text-wrap-mode: nowrap;&quot;&gt;%3CmxGraphModel%3E%3Croot%3E%3CmxCell%20id%3D%220%22%2F%3E%3CmxCell%20id%3D%221%22%20parent%3D%220%22%2F%3E%3CmxCell%20id%3D%222%22%20value%3D%22%26lt%3Bfont%20style%3D%26quot%3Bfont-size%3A%2014px%3B%26quot%3B%26gt%3BST_ID%26lt%3B%2Ffont%26gt%3B%22%20style%3D%22text%3Bhtml%3D1%3Balign%3Dcenter%3BverticalAlign%3Dmiddle%3BwhiteSpace%3Dwrap%3Brounded%3D0%3B%22%20vertex%3D%221%22%20parent%3D%221%22%3E%3CmxGeometry%20x%3D%2240%22%20y%3D%22320%22%20width%3D%2260%22%20height%3D%2230%22%20as%3D%22geometry%22%2F%3E%3C%2FmxCell%3E%3C%2Froot%3E%3C%2FmxGraphModel%3E&lt;/span&gt;" style="text;html=1;align=center;verticalAlign=middle;whiteSpace=wrap;rounded=0;" parent="1" vertex="1">
          <mxGeometry x="190" y="410" width="60" height="30" as="geometry" />
        </mxCell>
        <mxCell id="X8W623icdsvTC2ZFrLDy-39" value="&lt;font style=&quot;font-size: 14px;&quot;&gt;Crs_Name&lt;/font&gt;" style="text;html=1;align=center;verticalAlign=middle;whiteSpace=wrap;rounded=0;" parent="1" vertex="1">
          <mxGeometry x="110" y="410" width="60" height="30" as="geometry" />
        </mxCell>
        <mxCell id="X8W623icdsvTC2ZFrLDy-40" value="" style="endArrow=none;html=1;rounded=0;" parent="1" edge="1">
          <mxGeometry width="50" height="50" relative="1" as="geometry">
            <mxPoint x="100" y="450" as="sourcePoint" />
            <mxPoint x="100" y="400" as="targetPoint" />
          </mxGeometry>
        </mxCell>
        <mxCell id="X8W623icdsvTC2ZFrLDy-41" value="" style="endArrow=none;html=1;rounded=0;" parent="1" edge="1">
          <mxGeometry width="50" height="50" relative="1" as="geometry">
            <mxPoint x="180" y="450" as="sourcePoint" />
            <mxPoint x="180" y="400" as="targetPoint" />
          </mxGeometry>
        </mxCell>
        <mxCell id="X8W623icdsvTC2ZFrLDy-42" value="" style="endArrow=none;html=1;rounded=0;" parent="1" edge="1">
          <mxGeometry width="50" height="50" relative="1" as="geometry">
            <mxPoint x="260" y="450" as="sourcePoint" />
            <mxPoint x="260" y="400" as="targetPoint" />
          </mxGeometry>
        </mxCell>
        <mxCell id="X8W623icdsvTC2ZFrLDy-43" value="" style="endArrow=none;html=1;rounded=0;" parent="1" edge="1">
          <mxGeometry width="50" height="50" relative="1" as="geometry">
            <mxPoint x="340" y="450" as="sourcePoint" />
            <mxPoint x="340" y="400" as="targetPoint" />
          </mxGeometry>
        </mxCell>
        <mxCell id="X8W623icdsvTC2ZFrLDy-45" value="&lt;span style=&quot;font-size: 14px;&quot;&gt;&lt;b&gt;Instrucror&lt;/b&gt;&lt;/span&gt;" style="text;html=1;align=center;verticalAlign=middle;whiteSpace=wrap;rounded=0;" parent="1" vertex="1">
          <mxGeometry x="40" y="460" width="60" height="30" as="geometry" />
        </mxCell>
        <mxCell id="X8W623icdsvTC2ZFrLDy-46" value="" style="rounded=0;whiteSpace=wrap;html=1;" parent="1" vertex="1">
          <mxGeometry x="40" y="490" width="350" height="50" as="geometry" />
        </mxCell>
        <mxCell id="X8W623icdsvTC2ZFrLDy-47" value="&lt;font style=&quot;font-size: 14px;&quot;&gt;&lt;u&gt;Ins_ID&lt;/u&gt;&lt;/font&gt;" style="text;html=1;align=center;verticalAlign=middle;whiteSpace=wrap;rounded=0;" parent="1" vertex="1">
          <mxGeometry x="40" y="500" width="60" height="30" as="geometry" />
        </mxCell>
        <mxCell id="X8W623icdsvTC2ZFrLDy-48" value="&lt;font style=&quot;font-size: 14px;&quot;&gt;Ins_Name&lt;/font&gt;" style="text;html=1;align=center;verticalAlign=middle;whiteSpace=wrap;rounded=0;" parent="1" vertex="1">
          <mxGeometry x="110" y="500" width="60" height="30" as="geometry" />
        </mxCell>
        <mxCell id="X8W623icdsvTC2ZFrLDy-49" value="&lt;font style=&quot;font-size: 14px;&quot;&gt;Email&lt;/font&gt;" style="text;html=1;align=center;verticalAlign=middle;whiteSpace=wrap;rounded=0;" parent="1" vertex="1">
          <mxGeometry x="180" y="500" width="60" height="30" as="geometry" />
        </mxCell>
        <mxCell id="X8W623icdsvTC2ZFrLDy-50" value="" style="endArrow=none;html=1;rounded=0;" parent="1" edge="1">
          <mxGeometry width="50" height="50" relative="1" as="geometry">
            <mxPoint x="100" y="540" as="sourcePoint" />
            <mxPoint x="100" y="490" as="targetPoint" />
          </mxGeometry>
        </mxCell>
        <mxCell id="X8W623icdsvTC2ZFrLDy-51" value="" style="endArrow=none;html=1;rounded=0;" parent="1" edge="1">
          <mxGeometry width="50" height="50" relative="1" as="geometry">
            <mxPoint x="180" y="540" as="sourcePoint" />
            <mxPoint x="180" y="490" as="targetPoint" />
          </mxGeometry>
        </mxCell>
        <mxCell id="X8W623icdsvTC2ZFrLDy-52" value="&lt;span style=&quot;font-size: 14px;&quot;&gt;&lt;b&gt;Exam&lt;/b&gt;&lt;/span&gt;" style="text;html=1;align=center;verticalAlign=middle;whiteSpace=wrap;rounded=0;" parent="1" vertex="1">
          <mxGeometry x="30" y="550" width="60" height="30" as="geometry" />
        </mxCell>
        <mxCell id="X8W623icdsvTC2ZFrLDy-53" value="" style="rounded=0;whiteSpace=wrap;html=1;" parent="1" vertex="1">
          <mxGeometry x="40" y="585" width="750" height="50" as="geometry" />
        </mxCell>
        <mxCell id="X8W623icdsvTC2ZFrLDy-54" value="&lt;font style=&quot;font-size: 14px;&quot;&gt;&lt;u&gt;Ex_Id&lt;/u&gt;&lt;/font&gt;" style="text;html=1;align=center;verticalAlign=middle;whiteSpace=wrap;rounded=0;" parent="1" vertex="1">
          <mxGeometry x="40" y="595" width="60" height="30" as="geometry" />
        </mxCell>
        <mxCell id="X8W623icdsvTC2ZFrLDy-55" value="&lt;font style=&quot;font-size: 14px;&quot;&gt;Date&lt;/font&gt;" style="text;html=1;align=center;verticalAlign=middle;whiteSpace=wrap;rounded=0;" parent="1" vertex="1">
          <mxGeometry x="90" y="595" width="60" height="30" as="geometry" />
        </mxCell>
        <mxCell id="X8W623icdsvTC2ZFrLDy-56" value="&lt;font style=&quot;font-size: 14px;&quot;&gt;start_time&lt;/font&gt;" style="text;html=1;align=center;verticalAlign=middle;whiteSpace=wrap;rounded=0;" parent="1" vertex="1">
          <mxGeometry x="150" y="595" width="60" height="30" as="geometry" />
        </mxCell>
        <mxCell id="X8W623icdsvTC2ZFrLDy-57" value="&lt;font style=&quot;font-size: 14px;&quot;&gt;End_time&lt;/font&gt;" style="text;html=1;align=center;verticalAlign=middle;whiteSpace=wrap;rounded=0;" parent="1" vertex="1">
          <mxGeometry x="230" y="595" width="60" height="30" as="geometry" />
        </mxCell>
        <mxCell id="X8W623icdsvTC2ZFrLDy-58" value="&lt;font style=&quot;font-size: 14px;&quot;&gt;Corrective&lt;/font&gt;" style="text;html=1;align=center;verticalAlign=middle;whiteSpace=wrap;rounded=0;" parent="1" vertex="1">
          <mxGeometry x="310" y="595" width="60" height="30" as="geometry" />
        </mxCell>
        <mxCell id="X8W623icdsvTC2ZFrLDy-59" value="" style="endArrow=none;html=1;rounded=0;" parent="1" edge="1">
          <mxGeometry width="50" height="50" relative="1" as="geometry">
            <mxPoint x="99" y="635" as="sourcePoint" />
            <mxPoint x="99" y="585" as="targetPoint" />
          </mxGeometry>
        </mxCell>
        <mxCell id="X8W623icdsvTC2ZFrLDy-60" value="" style="endArrow=none;html=1;rounded=0;" parent="1" edge="1">
          <mxGeometry width="50" height="50" relative="1" as="geometry">
            <mxPoint x="139.5" y="635" as="sourcePoint" />
            <mxPoint x="139.5" y="585" as="targetPoint" />
          </mxGeometry>
        </mxCell>
        <mxCell id="X8W623icdsvTC2ZFrLDy-61" value="" style="endArrow=none;html=1;rounded=0;" parent="1" edge="1">
          <mxGeometry width="50" height="50" relative="1" as="geometry">
            <mxPoint x="219.5" y="635" as="sourcePoint" />
            <mxPoint x="219.5" y="585" as="targetPoint" />
          </mxGeometry>
        </mxCell>
        <mxCell id="X8W623icdsvTC2ZFrLDy-62" value="" style="endArrow=none;html=1;rounded=0;" parent="1" edge="1">
          <mxGeometry width="50" height="50" relative="1" as="geometry">
            <mxPoint x="299.5" y="635" as="sourcePoint" />
            <mxPoint x="299.5" y="585" as="targetPoint" />
          </mxGeometry>
        </mxCell>
        <mxCell id="X8W623icdsvTC2ZFrLDy-63" value="&lt;span style=&quot;font-size: 14px;&quot;&gt;&lt;b&gt;Qu_Pool&lt;/b&gt;&lt;/span&gt;" style="text;html=1;align=center;verticalAlign=middle;whiteSpace=wrap;rounded=0;" parent="1" vertex="1">
          <mxGeometry x="30" y="650" width="60" height="30" as="geometry" />
        </mxCell>
        <mxCell id="X8W623icdsvTC2ZFrLDy-64" value="" style="rounded=0;whiteSpace=wrap;html=1;" parent="1" vertex="1">
          <mxGeometry x="40" y="690" width="300" height="50" as="geometry" />
        </mxCell>
        <mxCell id="X8W623icdsvTC2ZFrLDy-65" value="&lt;font style=&quot;font-size: 14px;&quot;&gt;&lt;u&gt;Qu_ID&lt;/u&gt;&lt;/font&gt;" style="text;html=1;align=center;verticalAlign=middle;whiteSpace=wrap;rounded=0;" parent="1" vertex="1">
          <mxGeometry x="40" y="700" width="60" height="30" as="geometry" />
        </mxCell>
        <mxCell id="X8W623icdsvTC2ZFrLDy-66" value="&lt;font style=&quot;font-size: 14px;&quot;&gt;Body&lt;/font&gt;" style="text;html=1;align=center;verticalAlign=middle;whiteSpace=wrap;rounded=0;" parent="1" vertex="1">
          <mxGeometry x="100" y="700" width="60" height="30" as="geometry" />
        </mxCell>
        <mxCell id="X8W623icdsvTC2ZFrLDy-67" value="&lt;font style=&quot;font-size: 14px;&quot;&gt;Type&lt;/font&gt;" style="text;html=1;align=center;verticalAlign=middle;whiteSpace=wrap;rounded=0;" parent="1" vertex="1">
          <mxGeometry x="150" y="700" width="60" height="30" as="geometry" />
        </mxCell>
        <mxCell id="X8W623icdsvTC2ZFrLDy-69" value="&lt;font style=&quot;font-size: 14px;&quot;&gt;Degree&lt;/font&gt;" style="text;html=1;align=center;verticalAlign=middle;whiteSpace=wrap;rounded=0;" parent="1" vertex="1">
          <mxGeometry x="220" y="700" width="60" height="30" as="geometry" />
        </mxCell>
        <mxCell id="X8W623icdsvTC2ZFrLDy-70" value="" style="endArrow=none;html=1;rounded=0;" parent="1" edge="1">
          <mxGeometry width="50" height="50" relative="1" as="geometry">
            <mxPoint x="100" y="740" as="sourcePoint" />
            <mxPoint x="100" y="690" as="targetPoint" />
          </mxGeometry>
        </mxCell>
        <mxCell id="X8W623icdsvTC2ZFrLDy-71" value="" style="endArrow=none;html=1;rounded=0;" parent="1" edge="1">
          <mxGeometry width="50" height="50" relative="1" as="geometry">
            <mxPoint x="159" y="740" as="sourcePoint" />
            <mxPoint x="159" y="690" as="targetPoint" />
          </mxGeometry>
        </mxCell>
        <mxCell id="X8W623icdsvTC2ZFrLDy-72" value="" style="endArrow=none;html=1;rounded=0;" parent="1" edge="1">
          <mxGeometry width="50" height="50" relative="1" as="geometry">
            <mxPoint x="209" y="740" as="sourcePoint" />
            <mxPoint x="209" y="690" as="targetPoint" />
          </mxGeometry>
        </mxCell>
        <mxCell id="X8W623icdsvTC2ZFrLDy-75" value="" style="rounded=0;whiteSpace=wrap;html=1;fontStyle=1" parent="1" vertex="1">
          <mxGeometry x="40" y="790" width="200" height="50" as="geometry" />
        </mxCell>
        <mxCell id="X8W623icdsvTC2ZFrLDy-76" value="&lt;span style=&quot;font-size: 14px;&quot;&gt;&lt;b&gt;Choises&lt;/b&gt;&lt;/span&gt;" style="text;html=1;align=center;verticalAlign=middle;whiteSpace=wrap;rounded=0;" parent="1" vertex="1">
          <mxGeometry x="30" y="750" width="60" height="30" as="geometry" />
        </mxCell>
        <mxCell id="X8W623icdsvTC2ZFrLDy-77" value="&lt;font style=&quot;font-size: 14px;&quot;&gt;Body&lt;/font&gt;" style="text;html=1;align=center;verticalAlign=middle;whiteSpace=wrap;rounded=0;" parent="1" vertex="1">
          <mxGeometry x="40" y="800" width="60" height="30" as="geometry" />
        </mxCell>
        <mxCell id="X8W623icdsvTC2ZFrLDy-78" value="&lt;span style=&quot;font-size: 14px;&quot;&gt;Is_Correct&lt;/span&gt;" style="text;html=1;align=center;verticalAlign=middle;whiteSpace=wrap;rounded=0;" parent="1" vertex="1">
          <mxGeometry x="100" y="800" width="60" height="30" as="geometry" />
        </mxCell>
        <mxCell id="X8W623icdsvTC2ZFrLDy-79" value="" style="endArrow=none;html=1;rounded=0;" parent="1" edge="1">
          <mxGeometry width="50" height="50" relative="1" as="geometry">
            <mxPoint x="90" y="840" as="sourcePoint" />
            <mxPoint x="90" y="790" as="targetPoint" />
          </mxGeometry>
        </mxCell>
        <mxCell id="X8W623icdsvTC2ZFrLDy-81" value="&lt;font style=&quot;font-size: 14px;&quot;&gt;Qu_ID&lt;/font&gt;" style="text;html=1;align=center;verticalAlign=middle;whiteSpace=wrap;rounded=0;" parent="1" vertex="1">
          <mxGeometry x="170" y="800" width="60" height="30" as="geometry" />
        </mxCell>
        <mxCell id="X8W623icdsvTC2ZFrLDy-82" value="" style="endArrow=none;html=1;rounded=0;" parent="1" edge="1">
          <mxGeometry width="50" height="50" relative="1" as="geometry">
            <mxPoint x="170" y="840" as="sourcePoint" />
            <mxPoint x="170" y="790" as="targetPoint" />
          </mxGeometry>
        </mxCell>
        <mxCell id="X8W623icdsvTC2ZFrLDy-85" value="" style="endArrow=none;html=1;rounded=0;" parent="1" edge="1">
          <mxGeometry width="50" height="50" relative="1" as="geometry">
            <mxPoint x="199.5" y="270" as="sourcePoint" />
            <mxPoint x="199.5" y="220" as="targetPoint" />
          </mxGeometry>
        </mxCell>
        <mxCell id="X8W623icdsvTC2ZFrLDy-96" value="" style="rounded=0;whiteSpace=wrap;html=1;" parent="1" vertex="1">
          <mxGeometry x="600" y="220" width="135" height="50" as="geometry" />
        </mxCell>
        <mxCell id="X8W623icdsvTC2ZFrLDy-97" value="&lt;span style=&quot;font-size: 14px;&quot;&gt;&lt;b&gt;Track_Crs&lt;/b&gt;&lt;/span&gt;" style="text;html=1;align=center;verticalAlign=middle;whiteSpace=wrap;rounded=0;" parent="1" vertex="1">
          <mxGeometry x="605" y="190" width="60" height="30" as="geometry" />
        </mxCell>
        <mxCell id="X8W623icdsvTC2ZFrLDy-98" value="&lt;font style=&quot;font-size: 14px;&quot;&gt;Track_id&lt;/font&gt;" style="text;html=1;align=center;verticalAlign=middle;whiteSpace=wrap;rounded=0;" parent="1" vertex="1">
          <mxGeometry x="615" y="230" width="60" height="30" as="geometry" />
        </mxCell>
        <mxCell id="X8W623icdsvTC2ZFrLDy-99" value="&lt;span style=&quot;font-size: 14px;&quot;&gt;Crs_Id&lt;/span&gt;" style="text;html=1;align=center;verticalAlign=middle;whiteSpace=wrap;rounded=0;" parent="1" vertex="1">
          <mxGeometry x="675" y="230" width="60" height="30" as="geometry" />
        </mxCell>
        <mxCell id="X8W623icdsvTC2ZFrLDy-100" value="" style="endArrow=none;html=1;rounded=0;" parent="1" edge="1">
          <mxGeometry width="50" height="50" relative="1" as="geometry">
            <mxPoint x="675" y="270" as="sourcePoint" />
            <mxPoint x="675" y="220" as="targetPoint" />
          </mxGeometry>
        </mxCell>
        <mxCell id="X8W623icdsvTC2ZFrLDy-117" value="" style="rounded=0;whiteSpace=wrap;html=1;" parent="1" vertex="1">
          <mxGeometry x="400" y="790" width="400" height="50" as="geometry" />
        </mxCell>
        <mxCell id="X8W623icdsvTC2ZFrLDy-118" value="&lt;font style=&quot;font-size: 14px;&quot;&gt;ST_ID&lt;/font&gt;" style="text;html=1;align=center;verticalAlign=middle;whiteSpace=wrap;rounded=0;" parent="1" vertex="1">
          <mxGeometry x="400" y="800" width="60" height="30" as="geometry" />
        </mxCell>
        <mxCell id="X8W623icdsvTC2ZFrLDy-119" value="&lt;font style=&quot;font-size: 14px;&quot;&gt;Ex_Id&lt;/font&gt;" style="text;html=1;align=center;verticalAlign=middle;whiteSpace=wrap;rounded=0;" parent="1" vertex="1">
          <mxGeometry x="460" y="800" width="60" height="30" as="geometry" />
        </mxCell>
        <mxCell id="X8W623icdsvTC2ZFrLDy-120" value="&lt;font style=&quot;font-size: 14px;&quot;&gt;Qu_ID&lt;/font&gt;" style="text;html=1;align=center;verticalAlign=middle;whiteSpace=wrap;rounded=0;" parent="1" vertex="1">
          <mxGeometry x="520" y="800" width="60" height="30" as="geometry" />
        </mxCell>
        <mxCell id="X8W623icdsvTC2ZFrLDy-121" value="" style="endArrow=none;html=1;rounded=0;" parent="1" edge="1">
          <mxGeometry width="50" height="50" relative="1" as="geometry">
            <mxPoint x="460" y="840" as="sourcePoint" />
            <mxPoint x="460" y="790" as="targetPoint" />
          </mxGeometry>
        </mxCell>
        <mxCell id="X8W623icdsvTC2ZFrLDy-122" value="" style="endArrow=none;html=1;rounded=0;" parent="1" edge="1">
          <mxGeometry width="50" height="50" relative="1" as="geometry">
            <mxPoint x="519" y="840" as="sourcePoint" />
            <mxPoint x="519" y="790" as="targetPoint" />
          </mxGeometry>
        </mxCell>
        <mxCell id="X8W623icdsvTC2ZFrLDy-123" value="" style="endArrow=none;html=1;rounded=0;" parent="1" edge="1">
          <mxGeometry width="50" height="50" relative="1" as="geometry">
            <mxPoint x="579.5" y="840" as="sourcePoint" />
            <mxPoint x="579.5" y="790" as="targetPoint" />
          </mxGeometry>
        </mxCell>
        <mxCell id="X8W623icdsvTC2ZFrLDy-125" value="&lt;font style=&quot;font-size: 14px;&quot;&gt;Answer_TF&lt;/font&gt;" style="text;html=1;align=center;verticalAlign=middle;whiteSpace=wrap;rounded=0;" parent="1" vertex="1">
          <mxGeometry x="590" y="800" width="60" height="30" as="geometry" />
        </mxCell>
        <mxCell id="X8W623icdsvTC2ZFrLDy-127" value="&lt;span style=&quot;font-size: 14px;&quot;&gt;&lt;b&gt;Stu_Exam_QUP&lt;/b&gt;&lt;/span&gt;" style="text;html=1;align=center;verticalAlign=middle;whiteSpace=wrap;rounded=0;" parent="1" vertex="1">
          <mxGeometry x="420" y="750" width="60" height="30" as="geometry" />
        </mxCell>
        <mxCell id="X8W623icdsvTC2ZFrLDy-128" value="" style="endArrow=none;dashed=1;html=1;rounded=0;" parent="1" edge="1">
          <mxGeometry width="50" height="50" relative="1" as="geometry">
            <mxPoint x="414" y="830" as="sourcePoint" />
            <mxPoint x="574" y="830" as="targetPoint" />
          </mxGeometry>
        </mxCell>
        <mxCell id="X8W623icdsvTC2ZFrLDy-133" value="" style="endArrow=none;dashed=1;html=1;rounded=0;fontStyle=1" parent="1" edge="1">
          <mxGeometry width="50" height="50" relative="1" as="geometry">
            <mxPoint x="622.5" y="259" as="sourcePoint" />
            <mxPoint x="717.5" y="259" as="targetPoint" />
          </mxGeometry>
        </mxCell>
        <mxCell id="wLDNLPkYOUQ5_BmUobuY-1" value="" style="endArrow=none;dashed=1;html=1;rounded=0;" parent="1" edge="1">
          <mxGeometry width="50" height="50" relative="1" as="geometry">
            <mxPoint x="180" y="830" as="sourcePoint" />
            <mxPoint x="220" y="830" as="targetPoint" />
          </mxGeometry>
        </mxCell>
        <mxCell id="wLDNLPkYOUQ5_BmUobuY-2" value="" style="rounded=0;whiteSpace=wrap;html=1;" parent="1" vertex="1">
          <mxGeometry x="600" y="40" width="100" height="50" as="geometry" />
        </mxCell>
        <mxCell id="wLDNLPkYOUQ5_BmUobuY-3" value="&lt;span style=&quot;font-size: 14px;&quot;&gt;&lt;b&gt;INtake&lt;/b&gt;&lt;/span&gt;" style="text;html=1;align=center;verticalAlign=middle;whiteSpace=wrap;rounded=0;" parent="1" vertex="1">
          <mxGeometry x="600" width="60" height="30" as="geometry" />
        </mxCell>
        <mxCell id="wLDNLPkYOUQ5_BmUobuY-5" value="&lt;font style=&quot;font-size: 14px;&quot;&gt;&lt;u&gt;ID&lt;/u&gt;&lt;/font&gt;" style="text;html=1;align=center;verticalAlign=middle;whiteSpace=wrap;rounded=0;" parent="1" vertex="1">
          <mxGeometry x="590" y="50" width="60" height="30" as="geometry" />
        </mxCell>
        <mxCell id="wLDNLPkYOUQ5_BmUobuY-6" value="&lt;font style=&quot;font-size: 14px;&quot;&gt;Year&lt;/font&gt;" style="text;html=1;align=center;verticalAlign=middle;whiteSpace=wrap;rounded=0;" parent="1" vertex="1">
          <mxGeometry x="630" y="50" width="60" height="30" as="geometry" />
        </mxCell>
        <mxCell id="wLDNLPkYOUQ5_BmUobuY-7" value="" style="endArrow=none;html=1;rounded=0;" parent="1" edge="1">
          <mxGeometry width="50" height="50" relative="1" as="geometry">
            <mxPoint x="640" y="90" as="sourcePoint" />
            <mxPoint x="640" y="40" as="targetPoint" />
          </mxGeometry>
        </mxCell>
        <mxCell id="wLDNLPkYOUQ5_BmUobuY-9" value="&lt;font style=&quot;font-size: 14px;&quot;&gt;Intake_ID&lt;/font&gt;" style="text;html=1;align=center;verticalAlign=middle;whiteSpace=wrap;rounded=0;" parent="1" vertex="1">
          <mxGeometry x="310" y="320" width="60" height="30" as="geometry" />
        </mxCell>
        <mxCell id="wLDNLPkYOUQ5_BmUobuY-10" value="" style="endArrow=none;dashed=1;html=1;rounded=0;entryX=1;entryY=1;entryDx=0;entryDy=0;" parent="1" target="wLDNLPkYOUQ5_BmUobuY-9" edge="1">
          <mxGeometry width="50" height="50" relative="1" as="geometry">
            <mxPoint x="310" y="349" as="sourcePoint" />
            <mxPoint x="350" y="349" as="targetPoint" />
          </mxGeometry>
        </mxCell>
        <mxCell id="wLDNLPkYOUQ5_BmUobuY-11" value="" style="endArrow=none;html=1;rounded=0;" parent="1" edge="1">
          <mxGeometry width="50" height="50" relative="1" as="geometry">
            <mxPoint x="380" y="360" as="sourcePoint" />
            <mxPoint x="380" y="310" as="targetPoint" />
          </mxGeometry>
        </mxCell>
        <mxCell id="wLDNLPkYOUQ5_BmUobuY-12" value="&lt;font style=&quot;font-size: 14px;&quot;&gt;Track_id&lt;/font&gt;" style="text;html=1;align=center;verticalAlign=middle;whiteSpace=wrap;rounded=0;" parent="1" vertex="1">
          <mxGeometry x="380" y="320" width="60" height="30" as="geometry" />
        </mxCell>
        <mxCell id="wLDNLPkYOUQ5_BmUobuY-13" value="" style="endArrow=none;dashed=1;html=1;rounded=0;entryX=1;entryY=1;entryDx=0;entryDy=0;" parent="1" edge="1">
          <mxGeometry width="50" height="50" relative="1" as="geometry">
            <mxPoint x="380" y="350" as="sourcePoint" />
            <mxPoint x="440" y="351" as="targetPoint" />
          </mxGeometry>
        </mxCell>
        <mxCell id="wLDNLPkYOUQ5_BmUobuY-14" value="&lt;font style=&quot;font-size: 14px;&quot;&gt;Dep_Id&lt;/font&gt;" style="text;html=1;align=center;verticalAlign=middle;whiteSpace=wrap;rounded=0;" parent="1" vertex="1">
          <mxGeometry x="200" y="230" width="60" height="30" as="geometry" />
        </mxCell>
        <mxCell id="wLDNLPkYOUQ5_BmUobuY-15" value="" style="endArrow=none;dashed=1;html=1;rounded=0;entryX=1;entryY=1;entryDx=0;entryDy=0;" parent="1" edge="1">
          <mxGeometry width="50" height="50" relative="1" as="geometry">
            <mxPoint x="205" y="260" as="sourcePoint" />
            <mxPoint x="265" y="261" as="targetPoint" />
          </mxGeometry>
        </mxCell>
        <mxCell id="wLDNLPkYOUQ5_BmUobuY-17" value="&lt;font style=&quot;font-size: 14px;&quot;&gt;Dep_Id&lt;/font&gt;" style="text;html=1;align=center;verticalAlign=middle;whiteSpace=wrap;rounded=0;" parent="1" vertex="1">
          <mxGeometry x="320" y="500" width="60" height="30" as="geometry" />
        </mxCell>
        <mxCell id="wLDNLPkYOUQ5_BmUobuY-18" value="" style="endArrow=none;html=1;rounded=0;" parent="1" edge="1">
          <mxGeometry width="50" height="50" relative="1" as="geometry">
            <mxPoint x="239" y="540" as="sourcePoint" />
            <mxPoint x="239" y="490" as="targetPoint" />
          </mxGeometry>
        </mxCell>
        <mxCell id="wLDNLPkYOUQ5_BmUobuY-19" value="" style="endArrow=none;dashed=1;html=1;rounded=0;entryX=1;entryY=1;entryDx=0;entryDy=0;" parent="1" edge="1">
          <mxGeometry width="50" height="50" relative="1" as="geometry">
            <mxPoint x="320" y="529" as="sourcePoint" />
            <mxPoint x="380" y="530" as="targetPoint" />
          </mxGeometry>
        </mxCell>
        <mxCell id="wLDNLPkYOUQ5_BmUobuY-20" value="&lt;font style=&quot;font-size: 14px;&quot;&gt;Bran_ID&lt;/font&gt;" style="text;html=1;align=center;verticalAlign=middle;whiteSpace=wrap;rounded=0;" parent="1" vertex="1">
          <mxGeometry x="735" y="500" width="60" height="30" as="geometry" />
        </mxCell>
        <mxCell id="wLDNLPkYOUQ5_BmUobuY-23" value="&lt;font style=&quot;font-size: 14px;&quot;&gt;Bran_ID&lt;/font&gt;" style="text;html=1;align=center;verticalAlign=middle;whiteSpace=wrap;rounded=0;" parent="1" vertex="1">
          <mxGeometry x="454" y="320" width="60" height="30" as="geometry" />
        </mxCell>
        <mxCell id="wLDNLPkYOUQ5_BmUobuY-24" value="" style="endArrow=none;dashed=1;html=1;rounded=0;entryX=1;entryY=1;entryDx=0;entryDy=0;" parent="1" edge="1">
          <mxGeometry width="50" height="50" relative="1" as="geometry">
            <mxPoint x="460" y="350" as="sourcePoint" />
            <mxPoint x="520" y="351" as="targetPoint" />
          </mxGeometry>
        </mxCell>
        <mxCell id="wLDNLPkYOUQ5_BmUobuY-25" value="" style="endArrow=none;html=1;rounded=0;" parent="1" edge="1">
          <mxGeometry width="50" height="50" relative="1" as="geometry">
            <mxPoint x="449" y="360" as="sourcePoint" />
            <mxPoint x="449" y="310" as="targetPoint" />
          </mxGeometry>
        </mxCell>
        <mxCell id="wLDNLPkYOUQ5_BmUobuY-26" value="&lt;font style=&quot;font-size: 14px;&quot;&gt;Bran_ID&lt;/font&gt;" style="text;html=1;align=center;verticalAlign=middle;whiteSpace=wrap;rounded=0;" parent="1" vertex="1">
          <mxGeometry x="725" y="595" width="60" height="30" as="geometry" />
        </mxCell>
        <mxCell id="wLDNLPkYOUQ5_BmUobuY-27" value="" style="endArrow=none;html=1;rounded=0;" parent="1" edge="1">
          <mxGeometry width="50" height="50" relative="1" as="geometry">
            <mxPoint x="380" y="635" as="sourcePoint" />
            <mxPoint x="380" y="585" as="targetPoint" />
          </mxGeometry>
        </mxCell>
        <mxCell id="wLDNLPkYOUQ5_BmUobuY-28" value="" style="endArrow=none;dashed=1;html=1;rounded=0;" parent="1" edge="1">
          <mxGeometry width="50" height="50" relative="1" as="geometry">
            <mxPoint x="740" y="624" as="sourcePoint" />
            <mxPoint x="780" y="625" as="targetPoint" />
          </mxGeometry>
        </mxCell>
        <mxCell id="wLDNLPkYOUQ5_BmUobuY-29" value="" style="rounded=0;whiteSpace=wrap;html=1;" parent="1" vertex="1">
          <mxGeometry x="600" y="130" width="205" height="50" as="geometry" />
        </mxCell>
        <mxCell id="wLDNLPkYOUQ5_BmUobuY-30" value="&lt;span style=&quot;font-size: 14px;&quot;&gt;&lt;b&gt;Crs_Inst_Intake&lt;/b&gt;&lt;/span&gt;" style="text;html=1;align=center;verticalAlign=middle;whiteSpace=wrap;rounded=0;" parent="1" vertex="1">
          <mxGeometry x="625" y="100" width="60" height="30" as="geometry" />
        </mxCell>
        <mxCell id="wLDNLPkYOUQ5_BmUobuY-31" value="&lt;span style=&quot;font-size: 14px;&quot;&gt;Crs_Id&lt;/span&gt;" style="text;html=1;align=center;verticalAlign=middle;whiteSpace=wrap;rounded=0;" parent="1" vertex="1">
          <mxGeometry x="605" y="140" width="60" height="30" as="geometry" />
        </mxCell>
        <mxCell id="wLDNLPkYOUQ5_BmUobuY-32" value="&lt;span style=&quot;font-size: 14px;&quot;&gt;Ins_ID&lt;/span&gt;" style="text;html=1;align=center;verticalAlign=middle;whiteSpace=wrap;rounded=0;" parent="1" vertex="1">
          <mxGeometry x="665" y="140" width="60" height="30" as="geometry" />
        </mxCell>
        <mxCell id="wLDNLPkYOUQ5_BmUobuY-33" value="&lt;span style=&quot;font-size: 14px;&quot;&gt;Intake_ID&lt;/span&gt;" style="text;html=1;align=center;verticalAlign=middle;whiteSpace=wrap;rounded=0;" parent="1" vertex="1">
          <mxGeometry x="735" y="140" width="60" height="30" as="geometry" />
        </mxCell>
        <mxCell id="wLDNLPkYOUQ5_BmUobuY-34" value="" style="endArrow=none;html=1;rounded=0;" parent="1" edge="1">
          <mxGeometry width="50" height="50" relative="1" as="geometry">
            <mxPoint x="664" y="180" as="sourcePoint" />
            <mxPoint x="664" y="130" as="targetPoint" />
          </mxGeometry>
        </mxCell>
        <mxCell id="wLDNLPkYOUQ5_BmUobuY-35" value="" style="endArrow=none;html=1;rounded=0;" parent="1" edge="1">
          <mxGeometry width="50" height="50" relative="1" as="geometry">
            <mxPoint x="724" y="180" as="sourcePoint" />
            <mxPoint x="724" y="130" as="targetPoint" />
          </mxGeometry>
        </mxCell>
        <mxCell id="wLDNLPkYOUQ5_BmUobuY-36" value="" style="endArrow=none;dashed=1;html=1;rounded=0;fontStyle=1;exitX=0.5;exitY=1;exitDx=0;exitDy=0;" parent="1" source="wLDNLPkYOUQ5_BmUobuY-31" edge="1">
          <mxGeometry width="50" height="50" relative="1" as="geometry">
            <mxPoint x="685" y="170" as="sourcePoint" />
            <mxPoint x="780" y="170" as="targetPoint" />
          </mxGeometry>
        </mxCell>
        <mxCell id="wLDNLPkYOUQ5_BmUobuY-37" value="" style="rounded=0;whiteSpace=wrap;html=1;" parent="1" vertex="1">
          <mxGeometry x="600" y="400" width="185" height="50" as="geometry" />
        </mxCell>
        <mxCell id="wLDNLPkYOUQ5_BmUobuY-38" value="&lt;span style=&quot;font-size: 14px;&quot;&gt;&lt;b&gt;Inst_Exam_QuP&lt;/b&gt;&lt;/span&gt;" style="text;html=1;align=center;verticalAlign=middle;whiteSpace=wrap;rounded=0;" parent="1" vertex="1">
          <mxGeometry x="625" y="370" width="60" height="30" as="geometry" />
        </mxCell>
        <mxCell id="wLDNLPkYOUQ5_BmUobuY-39" value="&lt;span style=&quot;font-size: 14px;&quot;&gt;Ins_ID&lt;/span&gt;" style="text;html=1;align=center;verticalAlign=middle;whiteSpace=wrap;rounded=0;" parent="1" vertex="1">
          <mxGeometry x="605" y="410" width="60" height="30" as="geometry" />
        </mxCell>
        <mxCell id="wLDNLPkYOUQ5_BmUobuY-40" value="&lt;font style=&quot;font-size: 14px;&quot;&gt;Ex_Id&lt;/font&gt;" style="text;html=1;align=center;verticalAlign=middle;whiteSpace=wrap;rounded=0;" parent="1" vertex="1">
          <mxGeometry x="665" y="410" width="60" height="30" as="geometry" />
        </mxCell>
        <mxCell id="wLDNLPkYOUQ5_BmUobuY-41" value="&lt;font style=&quot;font-size: 14px;&quot;&gt;Qu_ID&lt;/font&gt;" style="text;html=1;align=center;verticalAlign=middle;whiteSpace=wrap;rounded=0;" parent="1" vertex="1">
          <mxGeometry x="725" y="410" width="60" height="30" as="geometry" />
        </mxCell>
        <mxCell id="wLDNLPkYOUQ5_BmUobuY-44" value="" style="endArrow=none;dashed=1;html=1;rounded=0;fontStyle=1;exitX=0.5;exitY=1;exitDx=0;exitDy=0;" parent="1" edge="1">
          <mxGeometry width="50" height="50" relative="1" as="geometry">
            <mxPoint x="625" y="439" as="sourcePoint" />
            <mxPoint x="770" y="439" as="targetPoint" />
          </mxGeometry>
        </mxCell>
        <mxCell id="wLDNLPkYOUQ5_BmUobuY-45" value="" style="endArrow=none;html=1;rounded=0;" parent="1" edge="1">
          <mxGeometry width="50" height="50" relative="1" as="geometry">
            <mxPoint x="669.5" y="450" as="sourcePoint" />
            <mxPoint x="669.5" y="400" as="targetPoint" />
          </mxGeometry>
        </mxCell>
        <mxCell id="wLDNLPkYOUQ5_BmUobuY-46" value="" style="endArrow=none;html=1;rounded=0;" parent="1" edge="1">
          <mxGeometry width="50" height="50" relative="1" as="geometry">
            <mxPoint x="724" y="450" as="sourcePoint" />
            <mxPoint x="724" y="400" as="targetPoint" />
          </mxGeometry>
        </mxCell>
        <mxCell id="2115HOQ8nHbyxsRojMSy-5" value="&lt;font style=&quot;font-size: 14px;&quot;&gt;Ins_ID&lt;/font&gt;" style="text;html=1;align=center;verticalAlign=middle;whiteSpace=wrap;rounded=0;" parent="1" vertex="1">
          <mxGeometry x="670" y="500" width="60" height="30" as="geometry" />
        </mxCell>
        <mxCell id="2115HOQ8nHbyxsRojMSy-8" value="" style="endArrow=none;html=1;rounded=0;" parent="1" edge="1">
          <mxGeometry width="50" height="50" relative="1" as="geometry">
            <mxPoint x="667" y="540" as="sourcePoint" />
            <mxPoint x="667" y="490" as="targetPoint" />
          </mxGeometry>
        </mxCell>
        <mxCell id="2115HOQ8nHbyxsRojMSy-9" value="&lt;span style=&quot;font-size: 14px;&quot;&gt;&lt;b&gt;Intake_Ins_Branch&lt;/b&gt;&lt;/span&gt;" style="text;html=1;align=center;verticalAlign=middle;whiteSpace=wrap;rounded=0;" parent="1" vertex="1">
          <mxGeometry x="630" y="460" width="60" height="30" as="geometry" />
        </mxCell>
        <mxCell id="ed_ZEuQ5A2hjXWQTPgk4-9" value="" style="endArrow=none;html=1;rounded=0;" parent="1" edge="1">
          <mxGeometry width="50" height="50" relative="1" as="geometry">
            <mxPoint x="735" y="540" as="sourcePoint" />
            <mxPoint x="735" y="490" as="targetPoint" />
          </mxGeometry>
        </mxCell>
        <mxCell id="ed_ZEuQ5A2hjXWQTPgk4-11" value="" style="endArrow=none;dashed=1;html=1;rounded=0;" parent="1" edge="1">
          <mxGeometry width="50" height="50" relative="1" as="geometry">
            <mxPoint x="634" y="530" as="sourcePoint" />
            <mxPoint x="785" y="530" as="targetPoint" />
          </mxGeometry>
        </mxCell>
        <mxCell id="ed_ZEuQ5A2hjXWQTPgk4-12" value="&lt;span style=&quot;font-size: 14px;&quot;&gt;Intake_ID&lt;/span&gt;" style="text;html=1;align=center;verticalAlign=middle;whiteSpace=wrap;rounded=0;" parent="1" vertex="1">
          <mxGeometry x="605" y="500" width="60" height="30" as="geometry" />
        </mxCell>
        <mxCell id="BGt1Us3aB3L44gLG08Cm-1" value="&lt;font style=&quot;font-size: 14px;&quot;&gt;Crs_ID&lt;/font&gt;" style="text;html=1;align=center;verticalAlign=middle;whiteSpace=wrap;rounded=0;" parent="1" vertex="1">
          <mxGeometry x="280" y="700" width="60" height="30" as="geometry" />
        </mxCell>
        <mxCell id="BGt1Us3aB3L44gLG08Cm-2" value="" style="endArrow=none;html=1;rounded=0;" parent="1" edge="1">
          <mxGeometry width="50" height="50" relative="1" as="geometry">
            <mxPoint x="280" y="740" as="sourcePoint" />
            <mxPoint x="280" y="690" as="targetPoint" />
          </mxGeometry>
        </mxCell>
        <mxCell id="q4uAJjIc0-PVKeUbNeTW-1" value="&lt;font style=&quot;font-size: 14px;&quot;&gt;Crs_ID&lt;/font&gt;" style="text;html=1;align=center;verticalAlign=middle;whiteSpace=wrap;rounded=0;" parent="1" vertex="1">
          <mxGeometry x="470" y="595" width="60" height="30" as="geometry" />
        </mxCell>
        <mxCell id="q4uAJjIc0-PVKeUbNeTW-2" value="" style="endArrow=none;dashed=1;html=1;rounded=0;" parent="1" edge="1">
          <mxGeometry width="50" height="50" relative="1" as="geometry">
            <mxPoint x="474" y="625" as="sourcePoint" />
            <mxPoint x="514" y="626" as="targetPoint" />
          </mxGeometry>
        </mxCell>
        <mxCell id="q4uAJjIc0-PVKeUbNeTW-3" value="" style="endArrow=none;html=1;rounded=0;" parent="1" edge="1">
          <mxGeometry width="50" height="50" relative="1" as="geometry">
            <mxPoint x="470" y="635" as="sourcePoint" />
            <mxPoint x="470" y="585" as="targetPoint" />
          </mxGeometry>
        </mxCell>
        <mxCell id="Y2h7bw7SG8_YQr00nQhk-1" value="" style="rounded=0;whiteSpace=wrap;html=1;fontStyle=1" parent="1" vertex="1">
          <mxGeometry x="600" y="310" width="130" height="50" as="geometry" />
        </mxCell>
        <mxCell id="Y2h7bw7SG8_YQr00nQhk-2" value="&lt;span style=&quot;font-size: 14px;&quot;&gt;&lt;b&gt;Dept_Branch&lt;/b&gt;&lt;/span&gt;" style="text;html=1;align=center;verticalAlign=middle;whiteSpace=wrap;rounded=0;" parent="1" vertex="1">
          <mxGeometry x="610" y="280" width="60" height="30" as="geometry" />
        </mxCell>
        <mxCell id="Y2h7bw7SG8_YQr00nQhk-3" value="&lt;font style=&quot;font-size: 14px;&quot;&gt;Bran_ID&lt;/font&gt;" style="text;html=1;align=center;verticalAlign=middle;whiteSpace=wrap;rounded=0;" parent="1" vertex="1">
          <mxGeometry x="670" y="320" width="60" height="30" as="geometry" />
        </mxCell>
        <mxCell id="Y2h7bw7SG8_YQr00nQhk-4" value="&lt;font style=&quot;font-size: 14px;&quot;&gt;Dep_Id&lt;/font&gt;" style="text;html=1;align=center;verticalAlign=middle;whiteSpace=wrap;rounded=0;" parent="1" vertex="1">
          <mxGeometry x="600" y="320" width="60" height="30" as="geometry" />
        </mxCell>
        <mxCell id="Y2h7bw7SG8_YQr00nQhk-5" value="" style="endArrow=none;html=1;rounded=0;" parent="1" edge="1">
          <mxGeometry width="50" height="50" relative="1" as="geometry">
            <mxPoint x="660" y="360" as="sourcePoint" />
            <mxPoint x="660" y="310" as="targetPoint" />
          </mxGeometry>
        </mxCell>
        <mxCell id="Y2h7bw7SG8_YQr00nQhk-6" value="" style="endArrow=none;dashed=1;html=1;rounded=0;entryX=0.75;entryY=1;entryDx=0;entryDy=0;exitX=0.25;exitY=1;exitDx=0;exitDy=0;" parent="1" source="Y2h7bw7SG8_YQr00nQhk-4" target="Y2h7bw7SG8_YQr00nQhk-3" edge="1">
          <mxGeometry width="50" height="50" relative="1" as="geometry">
            <mxPoint x="650" y="350" as="sourcePoint" />
            <mxPoint x="690" y="350" as="targetPoint" />
          </mxGeometry>
        </mxCell>
        <mxCell id="Y2h7bw7SG8_YQr00nQhk-7" value="&lt;font style=&quot;font-size: 14px;&quot;&gt;user_Name&lt;/font&gt;" style="text;html=1;align=center;verticalAlign=middle;whiteSpace=wrap;rounded=0;" parent="1" vertex="1">
          <mxGeometry x="240" y="320" width="60" height="30" as="geometry" />
        </mxCell>
        <mxCell id="Y2h7bw7SG8_YQr00nQhk-8" value="" style="endArrow=none;html=1;rounded=0;" parent="1" edge="1">
          <mxGeometry width="50" height="50" relative="1" as="geometry">
            <mxPoint x="309" y="360" as="sourcePoint" />
            <mxPoint x="309" y="310" as="targetPoint" />
          </mxGeometry>
        </mxCell>
        <mxCell id="Y2h7bw7SG8_YQr00nQhk-9" value="&lt;font style=&quot;font-size: 14px;&quot;&gt;user_Name&lt;/font&gt;" style="text;html=1;align=center;verticalAlign=middle;whiteSpace=wrap;rounded=0;" parent="1" vertex="1">
          <mxGeometry x="250" y="500" width="60" height="30" as="geometry" />
        </mxCell>
        <mxCell id="Y2h7bw7SG8_YQr00nQhk-10" value="" style="endArrow=none;html=1;rounded=0;" parent="1" edge="1">
          <mxGeometry width="50" height="50" relative="1" as="geometry">
            <mxPoint x="320" y="540" as="sourcePoint" />
            <mxPoint x="320" y="490" as="targetPoint" />
          </mxGeometry>
        </mxCell>
        <mxCell id="Y2h7bw7SG8_YQr00nQhk-11" value="&lt;span style=&quot;font-size: 14px;&quot;&gt;Intake_ID&lt;/span&gt;" style="text;html=1;align=center;verticalAlign=middle;whiteSpace=wrap;rounded=0;" parent="1" vertex="1">
          <mxGeometry x="530" y="595" width="60" height="30" as="geometry" />
        </mxCell>
        <mxCell id="Y2h7bw7SG8_YQr00nQhk-12" value="" style="endArrow=none;html=1;rounded=0;" parent="1" edge="1">
          <mxGeometry width="50" height="50" relative="1" as="geometry">
            <mxPoint x="529" y="635" as="sourcePoint" />
            <mxPoint x="529" y="585" as="targetPoint" />
          </mxGeometry>
        </mxCell>
        <mxCell id="Y2h7bw7SG8_YQr00nQhk-13" value="" style="endArrow=none;dashed=1;html=1;rounded=0;" parent="1" edge="1">
          <mxGeometry width="50" height="50" relative="1" as="geometry">
            <mxPoint x="530" y="624" as="sourcePoint" />
            <mxPoint x="580" y="625" as="targetPoint" />
          </mxGeometry>
        </mxCell>
        <mxCell id="Y2h7bw7SG8_YQr00nQhk-14" value="&lt;span style=&quot;font-size: 14px;&quot;&gt;Ins_ID&lt;/span&gt;" style="text;html=1;align=center;verticalAlign=middle;whiteSpace=wrap;rounded=0;" parent="1" vertex="1">
          <mxGeometry x="600" y="595" width="60" height="30" as="geometry" />
        </mxCell>
        <mxCell id="Y2h7bw7SG8_YQr00nQhk-15" value="" style="endArrow=none;dashed=1;html=1;rounded=0;" parent="1" edge="1">
          <mxGeometry width="50" height="50" relative="1" as="geometry">
            <mxPoint x="600" y="624" as="sourcePoint" />
            <mxPoint x="650" y="625" as="targetPoint" />
          </mxGeometry>
        </mxCell>
        <mxCell id="Y2h7bw7SG8_YQr00nQhk-16" value="" style="endArrow=none;html=1;rounded=0;" parent="1" edge="1">
          <mxGeometry width="50" height="50" relative="1" as="geometry">
            <mxPoint x="599" y="635" as="sourcePoint" />
            <mxPoint x="599" y="585" as="targetPoint" />
          </mxGeometry>
        </mxCell>
        <mxCell id="Y2h7bw7SG8_YQr00nQhk-17" value="&lt;font style=&quot;font-size: 14px;&quot;&gt;Track_id&lt;/font&gt;" style="text;html=1;align=center;verticalAlign=middle;whiteSpace=wrap;rounded=0;" parent="1" vertex="1">
          <mxGeometry x="660" y="595" width="60" height="30" as="geometry" />
        </mxCell>
        <mxCell id="Y2h7bw7SG8_YQr00nQhk-18" value="" style="endArrow=none;dashed=1;html=1;rounded=0;" parent="1" edge="1">
          <mxGeometry width="50" height="50" relative="1" as="geometry">
            <mxPoint x="670" y="624" as="sourcePoint" />
            <mxPoint x="720" y="625" as="targetPoint" />
          </mxGeometry>
        </mxCell>
        <mxCell id="Y2h7bw7SG8_YQr00nQhk-19" value="" style="endArrow=none;html=1;rounded=0;" parent="1" edge="1">
          <mxGeometry width="50" height="50" relative="1" as="geometry">
            <mxPoint x="659" y="635" as="sourcePoint" />
            <mxPoint x="659" y="585" as="targetPoint" />
          </mxGeometry>
        </mxCell>
        <mxCell id="Y2h7bw7SG8_YQr00nQhk-21" value="&lt;span style=&quot;font-size: 14px;&quot;&gt;Exam_Status&lt;/span&gt;" style="text;html=1;align=center;verticalAlign=middle;whiteSpace=wrap;rounded=0;" parent="1" vertex="1">
          <mxGeometry x="394" y="595" width="60" height="30" as="geometry" />
        </mxCell>
        <mxCell id="Y2h7bw7SG8_YQr00nQhk-23" value="" style="endArrow=none;html=1;rounded=0;" parent="1" edge="1">
          <mxGeometry width="50" height="50" relative="1" as="geometry">
            <mxPoint x="725" y="635" as="sourcePoint" />
            <mxPoint x="725" y="585" as="targetPoint" />
          </mxGeometry>
        </mxCell>
        <mxCell id="Y2h7bw7SG8_YQr00nQhk-24" value="" style="rounded=0;whiteSpace=wrap;html=1;" parent="1" vertex="1">
          <mxGeometry x="600" y="680" width="220" height="50" as="geometry" />
        </mxCell>
        <mxCell id="Y2h7bw7SG8_YQr00nQhk-25" value="&lt;span style=&quot;font-size: 14px;&quot;&gt;&lt;b&gt;Exam_QuP&lt;/b&gt;&lt;/span&gt;" style="text;html=1;align=center;verticalAlign=middle;whiteSpace=wrap;rounded=0;" parent="1" vertex="1">
          <mxGeometry x="600" y="650" width="60" height="30" as="geometry" />
        </mxCell>
        <mxCell id="Y2h7bw7SG8_YQr00nQhk-26" value="&lt;font style=&quot;font-size: 14px;&quot;&gt;Ex_Id&lt;/font&gt;" style="text;html=1;align=center;verticalAlign=middle;whiteSpace=wrap;rounded=0;" parent="1" vertex="1">
          <mxGeometry x="600" y="690" width="60" height="30" as="geometry" />
        </mxCell>
        <mxCell id="Y2h7bw7SG8_YQr00nQhk-27" value="&lt;font style=&quot;font-size: 14px;&quot;&gt;Qu_ID&lt;/font&gt;" style="text;html=1;align=center;verticalAlign=middle;whiteSpace=wrap;rounded=0;" parent="1" vertex="1">
          <mxGeometry x="665" y="690" width="60" height="30" as="geometry" />
        </mxCell>
        <mxCell id="Y2h7bw7SG8_YQr00nQhk-28" value="" style="endArrow=none;html=1;rounded=0;" parent="1" edge="1">
          <mxGeometry width="50" height="50" relative="1" as="geometry">
            <mxPoint x="667" y="730" as="sourcePoint" />
            <mxPoint x="667" y="680" as="targetPoint" />
          </mxGeometry>
        </mxCell>
        <mxCell id="Y2h7bw7SG8_YQr00nQhk-30" value="" style="endArrow=none;dashed=1;html=1;rounded=0;entryX=0.75;entryY=1;entryDx=0;entryDy=0;" parent="1" target="Y2h7bw7SG8_YQr00nQhk-27" edge="1">
          <mxGeometry width="50" height="50" relative="1" as="geometry">
            <mxPoint x="622.5" y="720" as="sourcePoint" />
            <mxPoint x="712.5" y="720" as="targetPoint" />
          </mxGeometry>
        </mxCell>
        <mxCell id="Y2h7bw7SG8_YQr00nQhk-31" value="&lt;span style=&quot;font-size: 14px;&quot;&gt;&lt;b&gt;Exam_Corrective&lt;/b&gt;&lt;/span&gt;" style="text;html=1;align=center;verticalAlign=middle;whiteSpace=wrap;rounded=0;" parent="1" vertex="1">
          <mxGeometry x="60" y="850" width="60" height="30" as="geometry" />
        </mxCell>
        <mxCell id="Y2h7bw7SG8_YQr00nQhk-32" value="" style="rounded=0;whiteSpace=wrap;html=1;" parent="1" vertex="1">
          <mxGeometry x="40" y="880" width="640" height="50" as="geometry" />
        </mxCell>
        <mxCell id="Y2h7bw7SG8_YQr00nQhk-33" value="&lt;span style=&quot;font-size: 14px;&quot;&gt;&lt;u&gt;Corrective_ID&lt;/u&gt;&lt;/span&gt;" style="text;html=1;align=center;verticalAlign=middle;whiteSpace=wrap;rounded=0;" parent="1" vertex="1">
          <mxGeometry x="60" y="890" width="60" height="30" as="geometry" />
        </mxCell>
        <mxCell id="Y2h7bw7SG8_YQr00nQhk-34" value="&lt;span style=&quot;font-size: 14px;&quot;&gt;Corrective_Data&lt;/span&gt;" style="text;html=1;align=center;verticalAlign=middle;whiteSpace=wrap;rounded=0;" parent="1" vertex="1">
          <mxGeometry x="170" y="890" width="60" height="30" as="geometry" />
        </mxCell>
        <mxCell id="Y2h7bw7SG8_YQr00nQhk-35" value="&lt;span style=&quot;font-size: 14px;&quot;&gt;Start_Time&lt;/span&gt;" style="text;html=1;align=center;verticalAlign=middle;whiteSpace=wrap;rounded=0;" parent="1" vertex="1">
          <mxGeometry x="270" y="890" width="60" height="30" as="geometry" />
        </mxCell>
        <mxCell id="Y2h7bw7SG8_YQr00nQhk-36" value="&lt;span style=&quot;font-size: 14px;&quot;&gt;End_Time&lt;/span&gt;" style="text;html=1;align=center;verticalAlign=middle;whiteSpace=wrap;rounded=0;" parent="1" vertex="1">
          <mxGeometry x="350" y="890" width="60" height="30" as="geometry" />
        </mxCell>
        <mxCell id="Y2h7bw7SG8_YQr00nQhk-37" value="&lt;span style=&quot;font-size: 14px;&quot;&gt;Is_Completed&lt;/span&gt;" style="text;html=1;align=center;verticalAlign=middle;whiteSpace=wrap;rounded=0;" parent="1" vertex="1">
          <mxGeometry x="430" y="890" width="60" height="30" as="geometry" />
        </mxCell>
        <mxCell id="Y2h7bw7SG8_YQr00nQhk-38" value="&lt;span style=&quot;font-size: 14px;&quot;&gt;Score&lt;/span&gt;" style="text;html=1;align=center;verticalAlign=middle;whiteSpace=wrap;rounded=0;" parent="1" vertex="1">
          <mxGeometry x="514" y="890" width="60" height="30" as="geometry" />
        </mxCell>
        <mxCell id="Y2h7bw7SG8_YQr00nQhk-39" value="" style="endArrow=none;html=1;rounded=0;" parent="1" edge="1">
          <mxGeometry width="50" height="50" relative="1" as="geometry">
            <mxPoint x="139.5" y="930" as="sourcePoint" />
            <mxPoint x="139.5" y="880" as="targetPoint" />
          </mxGeometry>
        </mxCell>
        <mxCell id="Y2h7bw7SG8_YQr00nQhk-40" value="" style="endArrow=none;html=1;rounded=0;" parent="1" edge="1">
          <mxGeometry width="50" height="50" relative="1" as="geometry">
            <mxPoint x="259" y="930" as="sourcePoint" />
            <mxPoint x="259" y="880" as="targetPoint" />
          </mxGeometry>
        </mxCell>
        <mxCell id="Y2h7bw7SG8_YQr00nQhk-41" value="" style="endArrow=none;html=1;rounded=0;" parent="1" edge="1">
          <mxGeometry width="50" height="50" relative="1" as="geometry">
            <mxPoint x="340" y="930" as="sourcePoint" />
            <mxPoint x="340" y="880" as="targetPoint" />
          </mxGeometry>
        </mxCell>
        <mxCell id="Y2h7bw7SG8_YQr00nQhk-42" value="" style="endArrow=none;html=1;rounded=0;" parent="1" edge="1">
          <mxGeometry width="50" height="50" relative="1" as="geometry">
            <mxPoint x="414" y="930" as="sourcePoint" />
            <mxPoint x="414" y="880" as="targetPoint" />
          </mxGeometry>
        </mxCell>
        <mxCell id="Y2h7bw7SG8_YQr00nQhk-43" value="" style="endArrow=none;html=1;rounded=0;" parent="1" edge="1">
          <mxGeometry width="50" height="50" relative="1" as="geometry">
            <mxPoint x="514" y="930" as="sourcePoint" />
            <mxPoint x="514" y="880" as="targetPoint" />
          </mxGeometry>
        </mxCell>
        <mxCell id="Y2h7bw7SG8_YQr00nQhk-53" value="&lt;font style=&quot;font-size: 14px;&quot;&gt;Score&lt;/font&gt;" style="text;html=1;align=center;verticalAlign=middle;whiteSpace=wrap;rounded=0;" parent="1" vertex="1">
          <mxGeometry x="650" y="800" width="60" height="30" as="geometry" />
        </mxCell>
        <mxCell id="Y2h7bw7SG8_YQr00nQhk-54" value="&lt;font style=&quot;font-size: 14px;&quot;&gt;Answer_Ch_ID&lt;/font&gt;" style="text;html=1;align=center;verticalAlign=middle;whiteSpace=wrap;rounded=0;" parent="1" vertex="1">
          <mxGeometry x="725" y="800" width="60" height="30" as="geometry" />
        </mxCell>
        <mxCell id="Y2h7bw7SG8_YQr00nQhk-55" value="" style="endArrow=none;html=1;rounded=0;" parent="1" edge="1">
          <mxGeometry width="50" height="50" relative="1" as="geometry">
            <mxPoint x="659" y="840" as="sourcePoint" />
            <mxPoint x="659" y="790" as="targetPoint" />
          </mxGeometry>
        </mxCell>
        <mxCell id="Y2h7bw7SG8_YQr00nQhk-56" value="" style="endArrow=none;html=1;rounded=0;" parent="1" edge="1">
          <mxGeometry width="50" height="50" relative="1" as="geometry">
            <mxPoint x="704.5" y="840" as="sourcePoint" />
            <mxPoint x="704.5" y="790" as="targetPoint" />
          </mxGeometry>
        </mxCell>
        <mxCell id="Y2h7bw7SG8_YQr00nQhk-58" value="" style="endArrow=none;dashed=1;html=1;rounded=0;" parent="1" edge="1">
          <mxGeometry width="50" height="50" relative="1" as="geometry">
            <mxPoint x="725" y="830.5" as="sourcePoint" />
            <mxPoint x="785" y="830" as="targetPoint" />
          </mxGeometry>
        </mxCell>
        <mxCell id="DQIwudqyyFmPbWLxBiDs-1" value="&lt;span style=&quot;font-size: 14px;&quot;&gt;Question_order&lt;/span&gt;" style="text;html=1;align=center;verticalAlign=middle;whiteSpace=wrap;rounded=0;" vertex="1" parent="1">
          <mxGeometry x="740" y="690" width="60" height="30" as="geometry" />
        </mxCell>
        <mxCell id="DQIwudqyyFmPbWLxBiDs-2" value="" style="endArrow=none;html=1;rounded=0;" edge="1" parent="1">
          <mxGeometry width="50" height="50" relative="1" as="geometry">
            <mxPoint x="720" y="730" as="sourcePoint" />
            <mxPoint x="720" y="680" as="targetPoint" />
          </mxGeometry>
        </mxCell>
        <mxCell id="DQIwudqyyFmPbWLxBiDs-3" value="&lt;font style=&quot;font-size: 14px;&quot;&gt;ST_ID&lt;/font&gt;" style="text;html=1;align=center;verticalAlign=middle;whiteSpace=wrap;rounded=0;" vertex="1" parent="1">
          <mxGeometry x="570" y="890" width="60" height="30" as="geometry" />
        </mxCell>
        <mxCell id="DQIwudqyyFmPbWLxBiDs-4" value="&lt;font style=&quot;font-size: 14px;&quot;&gt;Ex_Id&lt;/font&gt;" style="text;html=1;align=center;verticalAlign=middle;whiteSpace=wrap;rounded=0;" vertex="1" parent="1">
          <mxGeometry x="620" y="890" width="60" height="30" as="geometry" />
        </mxCell>
        <mxCell id="DQIwudqyyFmPbWLxBiDs-5" value="" style="endArrow=none;dashed=1;html=1;rounded=0;" edge="1" parent="1">
          <mxGeometry width="50" height="50" relative="1" as="geometry">
            <mxPoint x="580" y="920.5" as="sourcePoint" />
            <mxPoint x="620" y="920" as="targetPoint" />
          </mxGeometry>
        </mxCell>
        <mxCell id="DQIwudqyyFmPbWLxBiDs-6" value="" style="endArrow=none;dashed=1;html=1;rounded=0;" edge="1" parent="1">
          <mxGeometry width="50" height="50" relative="1" as="geometry">
            <mxPoint x="635" y="919.5" as="sourcePoint" />
            <mxPoint x="680" y="919" as="targetPoint" />
          </mxGeometry>
        </mxCell>
        <mxCell id="DQIwudqyyFmPbWLxBiDs-7" value="" style="endArrow=none;html=1;rounded=0;" edge="1" parent="1">
          <mxGeometry width="50" height="50" relative="1" as="geometry">
            <mxPoint x="570" y="930" as="sourcePoint" />
            <mxPoint x="570" y="880" as="targetPoint" />
          </mxGeometry>
        </mxCell>
        <mxCell id="DQIwudqyyFmPbWLxBiDs-8" value="" style="endArrow=none;html=1;rounded=0;" edge="1" parent="1">
          <mxGeometry width="50" height="50" relative="1" as="geometry">
            <mxPoint x="625" y="930" as="sourcePoint" />
            <mxPoint x="625" y="880" as="targetPoint" />
          </mxGeometry>
        </mxCell>
      </root>
    </mxGraphModel>
  </diagram>
</mxfile>
